<svg xmlns="http://www.w3.org/2000/svg" width="1366.001" height="2431.056" viewBox="0 0 1366.001 2431.056">
  <defs>
    <style>
      .cls-1 {
        fill: rgba(0,136,255,0.38);
      }
    </style>
  </defs>
  <g id="bg-biodata" transform="translate(0.001 0)">
    <path id="Subtraction_2" data-name="Subtraction 2" class="cls-1" d="M1892.8-3838.943h-.01a94.9,94.9,0,0,1-23.011-2.838,98.982,98.982,0,0,1-22.8-8.86L1730-3913.479V-4197h250.83l8.994,257.522a96.8,96.8,0,0,1-6.616,39.146,95.21,95.21,0,0,1-8.657,16.808,96.931,96.931,0,0,1-11.585,14.569,98.732,98.732,0,0,1-14.859,12.606,99.09,99.09,0,0,1-17.02,9.437,97.837,97.837,0,0,1-18.622,5.919A95.87,95.87,0,0,1,1892.8-3838.943Z" transform="translate(-1730 4197)"/>
    <path id="Subtraction_3" data-name="Subtraction 3" class="cls-1" d="M1877.726-3524.945h-.007a98.757,98.757,0,0,1-27.89-4.019,97.243,97.243,0,0,1-25.729-11.848,94.909,94.909,0,0,1-21.581-19.362,98,98,0,0,1-15.447-26.562l-99-253.944a98.948,98.948,0,0,1-6.084-24.089,94.958,94.958,0,0,1,.1-23.539,95.956,95.956,0,0,1,5.644-22.185,98.226,98.226,0,0,1,10.536-20.026,99.046,99.046,0,0,1,15.045-17.306,97.534,97.534,0,0,1,18.745-13.405,95.258,95.258,0,0,1,21.767-8.661,95.622,95.622,0,0,1,24.109-3.074,100.584,100.584,0,0,1,15.683,1.246l94.9,15.031v431.145A98.349,98.349,0,0,1,1877.726-3524.945Z" transform="translate(-522.53 5956)"/>
  </g>
</svg>
