<svg xmlns="http://www.w3.org/2000/svg" width="1366.001" height="1739.542" viewBox="0 0 1366.001 1739.542">
  <defs>
    <style>
      .cls-1 {
        fill: #f9f9f9;
      }

      .cls-2 {
        fill: rgba(0,136,255,0.38);
      }

      .cls-3 {
        fill: #fff;
      }
    </style>
  </defs>
  <g id="bg-detail" transform="translate(0 -744)">
    <rect id="Rectangle_106" data-name="Rectangle 106" class="cls-1" width="1366" height="1007" transform="translate(0 744)"/>
    <path id="Subtraction_2" data-name="Subtraction 2" class="cls-2" d="M-5415.417-8210.924h0l-227.112-4.139a87.06,87.06,0,0,1-22.542-3.333,77.423,77.423,0,0,1-19.142-8.414,69.252,69.252,0,0,1-15.042-12.43,60.925,60.925,0,0,1-10.239-15.382,54.552,54.552,0,0,1-4.127-12.955,51.275,51.275,0,0,1-.669-13.575,52.022,52.022,0,0,1,3.093-13.733,58.693,58.693,0,0,1,7.159-13.431L-5491-8609.159a65.948,65.948,0,0,1,12.443-13.209,72.643,72.643,0,0,1,15.3-9.419,81.625,81.625,0,0,1,17.2-5.643,88.068,88.068,0,0,1,18.141-1.879,89.016,89.016,0,0,1,12.5.883v427.5Z" transform="translate(6781.417 9771.98)"/>
    <rect id="Rectangle_409" data-name="Rectangle 409" class="cls-3" width="1366" height="724" transform="translate(0 1751)"/>
    <path id="Subtraction_1" data-name="Subtraction 1" class="cls-2" d="M-5347.031-7804.874h-.009a83.907,83.907,0,0,1-19.8-2.363,81.582,81.582,0,0,1-18.811-7.112,79.733,79.733,0,0,1-16.824-11.9,82.148,82.148,0,0,1-13.837-16.71l-4.762-7.586v-509.537l289.677-11.184c1.119-.044,2.254-.065,3.375-.065a81.594,81.594,0,0,1,33.671,7.121,80.632,80.632,0,0,1,14.217,8.228,81.741,81.741,0,0,1,12.09,10.738,81.812,81.812,0,0,1,13.521,19.842,79.854,79.854,0,0,1,7.124,22.967,78.53,78.53,0,0,1-8.809,49.245l-218.772,405.659a81.7,81.7,0,0,1-13.7,18.6,79.6,79.6,0,0,1-17.392,13.336A83.09,83.09,0,0,1-5347.031-7804.874Z" transform="translate(5421.072 9699.133)"/>
    <path id="Subtraction_3" data-name="Subtraction 3" class="cls-2" d="M-5526.349-7920.938h0l-197.021-273.6a98.6,98.6,0,0,1-12.567-23.56,94.916,94.916,0,0,1-5.487-24.665,96.4,96.4,0,0,1,1.065-24.587,98.6,98.6,0,0,1,7.09-23.323,98.647,98.647,0,0,1,12.588-20.877,96.435,96.435,0,0,1,17.559-17.243,94.935,94.935,0,0,1,22-12.427,98.618,98.618,0,0,1,25.917-6.425l128.854-14.095v440.806h0Z" transform="translate(6892.349 10404.48)"/>
  </g>
</svg>
