<svg xmlns="http://www.w3.org/2000/svg" width="1366" height="684.723" viewBox="0 0 1366 684.723">
  <defs>
    <style>
      .cls-1 {
        fill: #fff;
        stroke: #fff;
      }

      .cls-2 {
        fill: rgba(0,136,255,0.38);
      }

      .cls-3 {
        stroke: none;
      }

      .cls-4 {
        fill: none;
      }
    </style>
  </defs>
  <g id="Group_443" data-name="Group 443" transform="translate(0 -2019.506)">
    <g id="Rectangle_389" data-name="Rectangle 389" class="cls-1" transform="translate(0 2020)">
      <rect class="cls-3" width="1366" height="650"/>
      <rect class="cls-4" x="0.5" y="0.5" width="1365" height="649"/>
    </g>
    <path id="Subtraction_2" data-name="Subtraction 2" class="cls-2" d="M-3998,5685.073h0a94.922,94.922,0,0,1-30.794-9.582,97.55,97.55,0,0,1-27.25-20.765l-373.6-404.052a98.606,98.606,0,0,1-15.345-21.853,94.93,94.93,0,0,1-8.452-23.813,96.4,96.4,0,0,1-1.939-24.533,98.589,98.589,0,0,1,4.195-24.014,98.616,98.616,0,0,1,9.95-22.254,96.409,96.409,0,0,1,15.327-19.255,94.932,94.932,0,0,1,20.323-15.016,98.614,98.614,0,0,1,24.941-9.536L-3998,5000.351Z" transform="translate(5364 -2980.844)"/>
  </g>
</svg>
