<svg xmlns="http://www.w3.org/2000/svg" width="1366" height="408" viewBox="0 0 1366 408">
  <defs>
    <style>
      .cls-1 {
        fill: #fff;
        stroke: #fff;
      }

      .cls-2 {
        fill: rgba(0,136,255,0.38);
      }

      .cls-3 {
        stroke: none;
      }

      .cls-4 {
        fill: none;
      }
    </style>
  </defs>
  <g id="Group_443" data-name="Group 443" transform="translate(0 -888.391)">
    <g id="Rectangle_389" data-name="Rectangle 389" class="cls-1" transform="translate(0 888.391)">
      <rect class="cls-3" width="1366" height="408"/>
      <rect class="cls-4" x="0.5" y="0.5" width="1365" height="407"/>
    </g>
    <path id="Subtraction_5" data-name="Subtraction 5" class="cls-2" d="M221.748,295.174H0V40.005L158.657,2.669A99.281,99.281,0,0,1,181.364,0a95.021,95.021,0,0,1,44.1,10.843,98.022,98.022,0,0,1,18.42,12.482,99.138,99.138,0,0,1,15.106,16.237,97.931,97.931,0,0,1,10.912,18.789,95.013,95.013,0,0,1,7.945,43.608,99.122,99.122,0,0,1-4.213,23.49l-51.89,169.724Z" transform="translate(0 1000.627)"/>
  </g>
</svg>
