<svg xmlns="http://www.w3.org/2000/svg" width="144.794" height="145.99" viewBox="0 0 144.794 145.99">
  <defs>
    <style>
      .cls-1 {
        fill: #a3080c;
      }

      .cls-2 {
        fill: #fff1e2;
      }

      .cls-3 {
        fill: #fff;
      }

      .cls-4 {
        fill: none;
      }

      .cls-5 {
        fill: #f5d4b7;
      }
    </style>
  </defs>
  <g id="KFC_logo" transform="translate(-4.705 -2.508)">
    <g id="Layer_2" transform="translate(4.705 3.706)">
      <g id="Group_149" data-name="Group 149">
        <g id="Group_148" data-name="Group 148">
          <g id="Group_147" data-name="Group 147">
            <path id="Path_148" data-name="Path 148" class="cls-1" d="M77.1,4.931c-1.74,0-5.136.182-5.274.19.658.176-50.786,26.568-50.786,26.291a.476.476,0,0,1-.087.222,72.347,72.347,0,0,0-4.908,84.581c.048-.026,18.262,17.615,18.039,19.342a72.344,72.344,0,0,0,59.369,12.29c-.1-.571-.183-1.142-.261-1.7l-.951-6.674c-.286-1.826-1.782-14.235-1.782-14.235l0-.037,1.591-.611s2.092.087,2.04.093c0,0,2.121,12.48,2.49,14.645l.4,2.291c.154.923.284,1.838.475,2.786.133.789.252,1.544.369,2.3q2.574-.773,5.065-1.722c-.252-1.418-.527-2.88-.55-3.1l-.855-5.077c-1.129-5.238-1.849-9.123-2.377-11.708-.075-.371-.216-1.031-.216-1.031l1.634-.654,2.156.168s2.75,12.033,3.436,15.672l.784,4.051c1.475-.667,2.935-1.372,4.353-2.135l-.453-2.078c-.048-.2-.1-.443-.163-.712-.924-4.065-3.375-15.388-3.375-15.388l1.966-.772,1.921.27h.009s2.467,10.438,4.069,16.38a72.138,72.138,0,0,0,7.868-5.63s22.926-34.318,23.09-34.205A72.444,72.444,0,0,0,77.1,4.931Z" transform="translate(-4.705 -4.931)"/>
          </g>
        </g>
      </g>
    </g>
    <g id="Layer_6" transform="translate(39.54 16.41)">
      <path id="Path_149" data-name="Path 149" class="cls-2" d="M130.868,53.965s-9.042-17.051-12.731-19.611a22.8,22.8,0,0,0-13.966-3.625c-5.33.673-17.521,7.124-18.331,7.337.006.062-4.542,5.672-5.729,11.449-.264,1.284-4.944,21.753-4.944,21.753l8.9,25.708,31.713,15.13,11.628-12.658s1.484-12.524,4.615-21.918,2.142-14.5,2.142-14.5Z" transform="translate(-75.166 -30.627)"/>
    </g>
    <g id="Layer_4" transform="translate(17.711 4.033)">
      <path id="Path_150" data-name="Path 150" class="cls-3" d="M114.279,210.378c-.1.037-.184.076-.267.113.083-.037.171-.076.267-.113" transform="translate(-72.978 -109.134)"/>
      <path id="Path_151" data-name="Path 151" class="cls-3" d="M114.01,210.609Z" transform="translate(-72.977 -109.251)"/>
      <path id="Path_152" data-name="Path 152" class="cls-3" d="M104.781,110.564a10.972,10.972,0,0,1-1.108.478.837.837,0,0,0-.509.888c.1.49.23.65.277,1.028a3.5,3.5,0,0,1-.571,1.823,4.412,4.412,0,0,1-1.5,1.556,9.146,9.146,0,0,1-.835.405c-.049.023-.094.141-.138.378l0,0a.374.374,0,0,1,.1-.058,3.06,3.06,0,0,1,.41-.069c.15-.028.26-.063.315-.07s.405-.056.464-.069a10.008,10.008,0,0,0,1.762-.531,7.2,7.2,0,0,0,2.438-1.638,4.983,4.983,0,0,0,1.112-2.67c.013-.216.011-.35.011-.35a0,0,0,0,0,0,0l.021,0a.46.46,0,0,1-.278-.1,6,6,0,0,1-.85-.809.684.684,0,0,1-.134-.948c0,.007-.012.014-.017.021a4.9,4.9,0,0,1-.965.739" transform="translate(-66.09 -58.283)"/>
      <path id="Path_153" data-name="Path 153" class="cls-3" d="M161.394,104.2a1.961,1.961,0,0,0-.395.07.738.738,0,0,0-.335.228.525.525,0,0,0,.089.652,1.947,1.947,0,0,1,.5,1.178,3.564,3.564,0,0,1-.185,1.228,6.757,6.757,0,0,1-.649,1.2,3.09,3.09,0,0,0-.635,1.01.383.383,0,0,0,.036.242s.005,0,.005,0,0,.007,0,.011a.226.226,0,0,1,.044-.083,1.724,1.724,0,0,1,.765-.39,3.966,3.966,0,0,0,1.237-.61.558.558,0,0,0-.069.141.535.535,0,0,1,.134-.21c.163-.14,2.308-1.58,2.363-3.905.021-.873-1.112-.988-1.584-1-.351-.015-1.011.307-1.29.239a.088.088,0,0,0-.023-.011s0,0,0,0-.008.005-.01.008" transform="translate(-96.117 -55.332)"/>
      <path id="Path_154" data-name="Path 154" class="cls-3" d="M110.386,133.155s8.528,2.637,12.607-2.1,11.124,2.513,11.577,4.656-10.588,8.075-13.925,8.2-16.562-1.648-16.562-3.007S110.386,133.155,110.386,133.155Z" transform="translate(-67.958 -68.23)"/>
      <path id="Path_155" data-name="Path 155" class="cls-3" d="M118.751,36.631c-1.356-14.383-7.974-21.591-12.73-25.09-5-3.294-16.89-6.195-22.495-5.933-6.612.309-21.883,7.522-22.474,8.055-.563.514-10.8,17.638-9.538,20.7s3.061,17.508,3.646,18.668c.178.348,3.1,9.761,5.026,9.414,1.942-.35,3.753-8.935,3.667-9.6-.247-1.895-3.687-10.435-3.42-11.639s9.457-15.583,10.114-16.088c.464-.353,16.221-2.313,16.313-2.16,0,0,0-.009-.008-.014l0,0c1.1-.96,3.656-3.491,5.939-3.4s8.8.909,12.485,3.471a13.882,13.882,0,0,1,5.141,5.766l-.009,0c.124.018,5.255,11.683,6.759,11.724C118.167,40.531,118.916,38.36,118.751,36.631Z" transform="translate(-41.323 -5.592)"/>
      <path id="Path_156" data-name="Path 156" class="cls-3" d="M172.172,87.716c-.547.064-2.044.2-2.209.221-.294.038-.286.2-.268.329s.062.621.08.833a.4.4,0,0,0,.464.316c.227-.016,1.658-.145,1.872-.178s.415-.211.412-.379,0-.617,0-.8a.329.329,0,0,0-.346-.343" transform="translate(-101.128 -47.114)"/>
      <path id="Path_157" data-name="Path 157" class="cls-3" d="M42.512,226.546c.284.062.587.131.88.2-.654-.152-1.365-.307-1.773-.408a3.626,3.626,0,0,0-.886-.073,4.833,4.833,0,0,0-1.981.44c-.773.384-5.682,2.873-7.74,3.913a72.949,72.949,0,0,0,7.865,9.463c.18-.742,3.4-4.119,3.851-6.1.62-2.712-.923-6.292-.215-7.437" transform="translate(-31.012 -117.166)"/>
      <path id="Path_158" data-name="Path 158" class="cls-3" d="M216.047,242.717l-3.879.5s2.791,12.885,3.538,16.1l.45,2.078q2.025-1.09,3.966-2.3c-1.6-5.941-4.071-16.378-4.071-16.378Z" transform="translate(-122.607 -125.485)"/>
      <g id="Group_150" data-name="Group 150" transform="translate(67.58 106.678)">
        <path id="Path_159" data-name="Path 159" class="cls-4" d="M171.754,222.482l-.39-1.111h-.446v1.557h.284v-1.253l.433,1.253h.25l.429-1.253v1.253h.286v-1.557h-.447Z" transform="translate(-169.33 -221.371)"/>
        <path id="Path_160" data-name="Path 160" class="cls-4" d="M167.706,221.632h.508v1.3h.307v-1.3h.509v-.261h-1.324Z" transform="translate(-167.706 -221.371)"/>
      </g>
      <path id="Path_161" data-name="Path 161" class="cls-3" d="M262.379,136.027a6.989,6.989,0,0,0-3.038,5.48c.009,2.966,2.408,5.822,7.966,5.8a22.723,22.723,0,0,0,3.7-.337c.323-.052.639-.111.939-.173l.646-2.761a12.29,12.29,0,0,1-3.528.662c-2.96.009-4.944-1.746-4.949-4.047a3.98,3.98,0,0,1,1.411-3.092,6.342,6.342,0,0,1,4.216-1.355,3.744,3.744,0,0,1,2.827.957,3.047,3.047,0,0,1,.311.347h.464l.907-3.258a13.181,13.181,0,0,0-3.783-.584,13.031,13.031,0,0,0-8.092,2.356" transform="translate(-146.458 -70.349)"/>
      <path id="Path_162" data-name="Path 162" class="cls-3" d="M244.129,136.611a1.466,1.466,0,0,1,.954.336.75.75,0,0,1,.3.52h.456l.884-3.538H234.717l-.176.692-.042.168a1.057,1.057,0,0,1,.912,1.462l-3,10.893,5.1.01h.894l.227-.935a1.059,1.059,0,0,1-.828-1.306c.014-.065.436-1.614.688-2.544.113-.4.193-.69.193-.69l2.745,0a2.888,2.888,0,0,1,1.059.185,1.634,1.634,0,0,1,.761.53l.8-3.237h-4.627l.5-1.849.188-.69Z" transform="translate(-132.844 -70.481)"/>
      <path id="Path_163" data-name="Path 163" class="cls-3" d="M210.261,145.19c-.355-.381-3.441-5.188-3.441-5.188l5.458-4.368.181-.145a3.753,3.753,0,0,1,.675-.453,1.847,1.847,0,0,1,.954-.256l.219-.871-7.015.01-.175.69-.042.171c.477.033,1.142.459.6.967-.071.061-5.638,4.315-5.638,4.315l.044-.15,1.157-4.193a1.4,1.4,0,0,1,1.145-.938l.22-.863-6.7,0-.172.69-.044.171a1.052,1.052,0,0,1,.918,1.462c-2.235,8.077-1.98,7.278-2.131,7.718-.5,1.915-1.251,2.178-1.7,2.227-.1.009-.183.009-.245.013l-.092.362-.142.572h7l.234-.948s-1.111-.22-.9-1.022c.108-.4.389-1.425.636-2.328.24-.876.453-1.643.453-1.643,1.215,1.947,1.494,2.188,2.96,4.2,1.349,1.861,2.791,1.774,6.273,1.75.284,0,.577,0,.894,0l.231-.93a2.526,2.526,0,0,1-1.819-1.018" transform="translate(-113.57 -70.471)"/>
      <path id="Path_164" data-name="Path 164" class="cls-3" d="M291.856,134.13a.887.887,0,1,0,.259.624.839.839,0,0,0-.259-.624m-.087,1.166a.733.733,0,0,1-.541.226.72.72,0,0,1-.536-.226.766.766,0,0,1,0-1.079.726.726,0,0,1,.536-.225.767.767,0,0,1,.541,1.3" transform="translate(-162.136 -70.453)"/>
      <path id="Path_165" data-name="Path 165" class="cls-3" d="M292.169,134.946a.246.246,0,0,0-.149-.246.865.865,0,0,0-.266-.032h-.34v.97h.168v-.384h.134a.438.438,0,0,1,.2.032.242.242,0,0,1,.087.223v.075l.007.033v.011a.015.015,0,0,0,0,.009h.158l0-.014c-.009-.007-.009-.023-.013-.049v-.143a.264.264,0,0,0-.054-.153.236.236,0,0,0-.165-.094.328.328,0,0,0,.139-.047.219.219,0,0,0,.1-.192m-.27.17a.46.46,0,0,1-.158.018h-.158v-.35h.144a.435.435,0,0,1,.211.036.151.151,0,0,1,.064.143.156.156,0,0,1-.1.152" transform="translate(-162.675 -70.854)"/>
      <path id="Path_166" data-name="Path 166" class="cls-3" d="M244.68,187.241c-9.229-2.8-28.18-2.142-28.18-2.142l15.491,36.5s1.435-.719,1.614-.327a72.438,72.438,0,0,0,18.843-28.747C252.138,192.29,253.909,190.043,244.68,187.241Z" transform="translate(-124.797 -96.319)"/>
      <g id="Group_152" data-name="Group 152" transform="translate(24.837 79.353)">
        <path id="Path_167" data-name="Path 167" class="cls-4" d="M174.162,221.559v-.188h-.154Z" transform="translate(-128.15 -194.046)"/>
        <g id="Group_151" data-name="Group 151">
          <path id="Path_168" data-name="Path 168" class="cls-4" d="M174.162,221.559v-.188h-.154Z" transform="translate(-128.15 -194.046)"/>
          <path id="Path_169" data-name="Path 169" class="cls-3" d="M144.824,220.74c-.692-3.638-3.444-15.672-3.444-15.672s3.654-.96,4.511-3.052-1.082-5.312-1.174-6.582c-.4-3.79-1.885-19.312-4.326-22.526-1.421-1.871-7.958-5.563-8.466-5.541-2.348.1-7.045,10.331-10.969,11.258-2.616.618-4.463-1.927-4.04-1.734a.247.247,0,0,1-.021-.014,7.741,7.741,0,0,0-.433-1.668,17.96,17.96,0,0,0-1.524-3.155c-.165-.328-.662-1.043-.679-1.125a9.109,9.109,0,0,1-.323-1.379,11.741,11.741,0,0,1-.123-2.8c0-.1.05-.392.063-.451s-.014-.168-.089-.186a.5.5,0,0,0-.5.16c-.455.459-.476.546-.484.623s.031.211.017.371a2.808,2.808,0,0,1-.366,1.269c-.227.376-.375.5-.7.474s-.6-.289-.638-.96a1.626,1.626,0,0,0-.309-1.058.818.818,0,0,0-.544-.234c-.1,0-.189.092-.9.266a12.193,12.193,0,0,1-1.98.245c-.168.01-.779.072-.784.073.128.479-2.57-.257-3.024.107-.927.742-1.36,5.557-1.813,8.054,0,0,0,0,0,.007l-15.2,1.539L81.25,189.41s1.607,24.472,1.607,24.843,33.618-7.292,33.618-7.292l12.683-.274a.192.192,0,0,1,.005.034c.089.731,1.5,12.411,1.782,14.24l.951,6.669c.078.567.165,1.14.261,1.7,1.471-.34,2.928-.717,4.365-1.147-.117-.752-.237-1.51-.369-2.294-.188-.951-.319-1.865-.472-2.788l-.4-2.291c-.367-2.163-2.493-14.64-2.493-14.64l2.228-1.407,2.579.788c.069.316.137.66.216,1.031.529,2.589,1.251,6.47,2.377,11.7l.855,5.082c.023.216.3,1.677.552,3.1q2.034-.781,4.009-1.677Z" transform="translate(-81.25 -166.1)"/>
        </g>
      </g>
    </g>
    <g id="Layer_5" transform="translate(25.574 23.814)">
      <path id="Path_170" data-name="Path 170" class="cls-5" d="M152.022,88.984c-2.8.412-6.88,2.7-6.695,4.367.114,1.034,5.957,1.192,8.59,1.38s3.067-2.343,2.926-3.718S154.97,88.551,152.022,88.984Z" transform="translate(-96.671 -67.489)"/>
      <path id="Path_171" data-name="Path 171" class="cls-5" d="M196.63,179.931c-1.391-.145-.745,2.11-.761,2.338v0c.7,2.653,1.287,5.3,1.739,7.7a4.238,4.238,0,0,0,.052.612c.2,1.044.612,4.419,1.4,12.042.183,2.539.344,5.187.449,7.414.072,0,4.755.266,4.755.266a112.84,112.84,0,0,0-1.638-14.77C201.179,187.315,199,180.178,196.63,179.931Z" transform="translate(-122.16 -113.518)"/>
      <path id="Path_172" data-name="Path 172" class="cls-5" d="M157.835,128.159a3.094,3.094,0,0,0-.41-2.41,6.067,6.067,0,0,0-2.028-1.921c-.9-.6-2.942-2.4-3.139-2.57s-1.145-1.066-1.366-1.245a8.918,8.918,0,0,0-1.65-1.041,5.083,5.083,0,0,0-4.34-.259,7.226,7.226,0,0,0-.759.644c-.331.314-.083.921.044,1.143,0,0,12.55,9.2,12.575,9.414l.009.007a3.772,3.772,0,0,0,1.063-1.76" transform="translate(-95.992 -82.387)"/>
      <path id="Path_173" data-name="Path 173" class="cls-5" d="M160.67,114.648a1.718,1.718,0,0,0-.765.39.227.227,0,0,0-.041.083.155.155,0,0,0-.01.066v.05c0,.022.013.04.018.06s.023.047.037.07a.454.454,0,0,0,.031.047.745.745,0,0,0,.069.085.377.377,0,0,0,.037.038c.032.032.067.065.106.1a.16.16,0,0,0,.03.025c.044.038.09.073.135.111a.153.153,0,0,1,.023.016c.055.04.11.077.165.114,0,0,0,0,.007,0l.178.116a.531.531,0,0,0,.255.058,1.718,1.718,0,0,0,.358-.033,6.873,6.873,0,0,0,1.48-.537s0,0-.009,0a12.248,12.248,0,0,1-.866-1.473,3.916,3.916,0,0,1-1.236.61" transform="translate(-104.019 -80.205)"/>
      <path id="Path_174" data-name="Path 174" class="cls-5" d="M100.516,88.652c.035.014.065.034.1.048a.051.051,0,0,1-.01-.011.758.758,0,0,1-.255-.479,6.594,6.594,0,0,0-.311-.766c-.078-.183-.423-.805-.556-1.208a3.741,3.741,0,0,1-.219-1.054,4.16,4.16,0,0,1-.134-1.461c.04-.485.148-1.045.456-2.616a17,17,0,0,0-.13-3.322c-.01-.849-.094-2.935-.071-5.035V72.74c-.145.049-18.835-3.96-18.7-3.98l.011,0a39.142,39.142,0,0,0-.025-5.208c.484-4.742,1.213-10.23,2.888-13.889a28.309,28.309,0,0,1,1.762-3.213.68.68,0,0,0,.09-.253c.007-.066-.047-.439-.058-.557v0c-.038.011-4.593-1.264-10.26,11.743-2.372,5.449.785,19.075.785,19.075l4.933,1.638,3.214-1.746,7.6-1.56L94.731,76.3s-.956,2.907-.964,2.907,0,0,0,0,0,.136-.013.35a4.946,4.946,0,0,1-1.112,2.673A7.217,7.217,0,0,1,90.2,83.868a10.007,10.007,0,0,1-1.765.53c-.056.013-.405.061-.462.07s-.164.04-.314.07a2.84,2.84,0,0,0-.411.067.3.3,0,0,0-.1.061.238.238,0,0,0-.085.132.052.052,0,0,0,0,.021.364.364,0,0,0,0,.136,1.535,1.535,0,0,0,.219.408,1.057,1.057,0,0,0,1.133.369,20.675,20.675,0,0,0,2.009-.556,8.009,8.009,0,0,0,1.477-.629c.12-.1.441-.345.493-.373,0,0,0,0,0,0,.067-.061.13-.118.193-.172.027-.023.053-.051.081-.072l.018-.015c.1,1.225-1.366,4.9-1.366,4.9s-3.422,1.218-3.205,1.057c0,0,0,0,0,0a.967.967,0,0,1-1.1-.04s-.4-.471-.9-1.1c-.3-.373-.622-.8-.917-1.215a7.829,7.829,0,0,1-.467-.73,2.966,2.966,0,0,1-.336-.741.11.11,0,0,1-.009-.033,4.909,4.909,0,0,1-.169-.633,8.613,8.613,0,0,1-1.867-.437s0,.008.009.012c.05.044-4.238.98-4.238.98l4.437,18.076s8.281,13.019,13.472,10.506c.774-.375,2.121-3.013,1.566-3.914-.571-.923-9.352-15.491-9.352-15.491S100.4,88.6,100.516,88.652Z" transform="translate(-60.716 -45.604)"/>
      <path id="Path_175" data-name="Path 175" class="cls-5" d="M155.58,225.731a18.2,18.2,0,0,0,3.96,2.07,2.623,2.623,0,0,0,2.689-.99.16.16,0,0,0-.032.026l-.009,0c-.042.025-8.83-6.871-9.976-7.279-.408-.144-2.652.679-2.364,1.094.259.373,1.344,1.5,1.369,1.547,1.532,1.191,3.459,2.781,4.362,3.529" transform="translate(-98.948 -133.551)"/>
      <path id="Path_176" data-name="Path 176" class="cls-5" d="M108.636,197.727l-14.7-8.415s.429,4.169.426,4.234l0,.005a34.266,34.266,0,0,0,3.017,2.289,8.6,8.6,0,0,1,.927.679c.18.2,1.994,1.486,2.132,1.583s2.091,1.171,3.277,1.8c.043-.023-.826.688-.812.665a5.046,5.046,0,0,0-1.18.366c-2.06,1.157-.837,3.565-.643,5.242.394,1.413.892,3.868,2.725,4.1,1.4.168,4.589-.705,6.277-1.052.239-.423,2.687-.575,2.657-.541a5.176,5.176,0,0,1,1.187-.3c.105.018-.383.536-.665,1.065s-2.041,5.721-3.677,8.484a10.728,10.728,0,0,0-.623,1.487v0l3.315.759,5.356-13.6Z" transform="translate(-70.691 -118.265)"/>
      <path id="Path_177" data-name="Path 177" class="cls-5" d="M87.221,219.127c.571,1.058,2.214,3.279,2.295,3.4s.434.5.851.971.777.871.878.99.884.928,1.087,1.114.436.564.605.721c.58.521,2.715,2.377,2.921,2.53a9.058,9.058,0,0,0,1.408.865,2.945,2.945,0,0,0,2.92-1.07.825.825,0,0,0,.108-.852,42.767,42.767,0,0,1-11.777-15.515c-.182-.4-1.811-2.369-3.306-1.174-1.228.981-.34,3.331-.34,3.331v.013c.466.963,1.863,3.767,2.351,4.67" transform="translate(-65.95 -129.095)"/>
      <path id="Path_178" data-name="Path 178" class="cls-5" d="M54.291,228.276c.474-1.772-3.454-1.377-3.738-1.441-1.225,1.982-2.524,8.714-3.186,11.866-.115.355-.269.925-.45,1.663q1.353,1.375,2.771,2.679C50.371,240.383,54.166,228.747,54.291,228.276Z" transform="translate(-46.917 -137.237)"/>
    </g>
    <g id="Layer_1_1_" transform="translate(16.048 2.508)">
      <g id="Group_153" data-name="Group 153" transform="translate(0)">
        <path id="Path_179" data-name="Path 179" class="cls-1" d="M292.612,136.589a.084.084,0,0,0,0,.011.023.023,0,0,0,0,.009.022.022,0,0,1,0-.009.04.04,0,0,1,0-.011" transform="translate(-161.617 -70.301)"/>
        <path id="Path_180" data-name="Path 180" d="M149.716,94.169A118,118,0,0,0,135.347,92c-6.989-.636-12.709-1.182-13.5-1.267-.72-.072-.98-.731-1.634-1.059-2.369-1.188-6.846-2.29-9.652-3.278-.694-.24-1.15-.855-2.109-2.023a11.682,11.682,0,0,0-1.475-1.485c-.3-.273-.949-.823-1.123-.956s-.289-.531-.142-1.3a41.166,41.166,0,0,0,.568-7.253,1.855,1.855,0,0,1,.841-1.755c.236-.119,1.771-.8,1.668-2.311a12.386,12.386,0,0,1,.649-6.656A42.661,42.661,0,0,0,112.3,51.15c.19-3.634-.722-5.978-2.156-7.247a2.287,2.287,0,0,1-.68-2.814c.575-1.7,1.619-6.351.593-9.426-.23-.683-.49-.687-.647-.77a2.966,2.966,0,0,1-1.182-1.905,33.842,33.842,0,0,0-6.145-13.51,28.7,28.7,0,0,0-6.026-5.82c-.706-.459-1.945-1.323-3.428-2.112a38.763,38.763,0,0,0-7.192-3.074c-.32-.1-1.046-.323-2-.578h-.011a47.823,47.823,0,0,0-6.006-1.137c-.533-.049-1.262-.117-2.09-.173a29.5,29.5,0,0,0-6.056.177c-.178.017-.36.044-.54.069-.333.044-.678.1-1.038.152A50.851,50.851,0,0,0,55.218,7.332c-1.387.659-2.613,1.344-3.742,1.986-.031.02-.071.043-.092.055-.291.177-.746.431-1.19.675-.694.392-1.358.758-2,1.072a39.878,39.878,0,0,1-5.015,1.905c-.232.087-.427.161-.577.212-.922.359-1.509.73-1.617,1.341-.2,1.1,1.1,2.116.634,3.867-1.136,4.305-5.995,8.437-6.774,8.914-2.257,1.377-2.116,2.336-2.2,2.826A3.476,3.476,0,0,0,33,31.7c.752,1.593,2.143,2.959,2.824,4.4a12.22,12.22,0,0,1,.561,6.919,16.635,16.635,0,0,1-.894,4.012,2.732,2.732,0,0,0-.059,2.761,12.925,12.925,0,0,0,3.121,3.174c.5.383.752.73.385,1.419-.605,1.129-.45,3.79.123,5.279a30.68,30.68,0,0,0,2.824,5.829A31.273,31.273,0,0,0,45.5,70.1a4.274,4.274,0,0,1,1.1,3.282,5.37,5.37,0,0,0,2.536,5.172c1.324.814,1.443.609,1.928,1.008a2.652,2.652,0,0,1,1.05,1.654,27.426,27.426,0,0,0,3.965,7.355,13.457,13.457,0,0,1,1.027,1.416c.074.124.188.261-.078.884a80.523,80.523,0,0,0-2.173,7.84,2.623,2.623,0,0,1-1.226,1.973c-.845.407-2.733,1.451-3.421,1.83a4.9,4.9,0,0,0-1.828,1.576c-.354.44-.612.7-.835.967-.129.155-.185.255-.858.605a119.2,119.2,0,0,0-18.39,8.95c-.227.137-.439.259-.65.376.54.843,1.091,1.678,1.664,2.493,2.058-1.04,6.966-3.528,7.738-3.913a4.846,4.846,0,0,1,1.98-.441,3.686,3.686,0,0,1,.886.073c.411.1,1.119.257,1.777.407l.184.042c.041.009.081.018.123.03.271.067.523.127.725.181.011,0,.021,0,.032.009.1.028.188.052.257.073.584.192.894,1.287.578,2.284-.056.188-.238.82-.5,1.755-.132.47-.284,1.011-.45,1.611s-.35,1.261-.542,1.962c-.676,2.456-1.469,5.4-2.152,8.063a72.527,72.527,0,0,0,5.743,4.712c.223-1.727.458-3.525.64-4.834.477-3.413,3.2-16.057,3.973-18.932.56-2.092.851-3.045,1.587-3.375.221-.1.472-.243.617-.314s.464-.144.365.41c-.113.658-.68,3.341-1.515,12.047a97.709,97.709,0,0,0-.385,14.607c.09,1.37.113,3.306,2.209,2.467,2.449-.978,10.8-3.972,15.259-5.347a260.528,260.528,0,0,1,33.617-7.089l3.628-.516s2.124,12.479,2.49,14.642l.4,2.29-.4-2.29c-.369-2.163-2.49-14.642-2.49-14.642.508-.07,1.02-.135,1.524-.2,1.162-.147,2.252-.284,3.279-.417l3.789-.485c1.773-.227,3.295-.422,4.584-.59,0,0,2.449,11.322,3.37,15.39.064.267.119.509.165.71l.453,2.078h.007l-.451-2.078c-.748-3.217-3.537-16.1-3.537-16.1l3.879-.5c1.147-.146,2.609-.33,3.045-.351.912-.038,1.31-.554.614-.763a12.1,12.1,0,0,0-2.25-.277l-.876-.011c-.9-.016-1.154-.193-1.352-1.516a172.319,172.319,0,0,0-4.274-18.577c-1.5-4.894-1.874-6.3-2.236-7.381-.316-.928.3-.985.591-.971,1.1.052,2.612.621,3.047,1.558.963,2.087,7.547,19.334,10.191,25.764,1.668,4.05,3.611,8.927,5.446,13.27,1.176-.967,2.31-1.984,3.421-3.024-3.416-7.51-11.02-24.524-15.03-33.134-.144-.31-.339-.812-.438-1.106a.8.8,0,0,1-.048-.264c0-.549.731-.626,1.091-.591,1.415.142,14.274.99,17.785,1.325,2.317.219,4.628.573,6.172.848.358.066.673.126.939.178.33.066.577.118.738.162a26.388,26.388,0,0,1,5.037,2.1,19.676,19.676,0,0,1,2.6,1.737c.284-.807.568-1.616.825-2.433a23.052,23.052,0,0,0-2.173-1.343,22.686,22.686,0,0,0-5.894-2.3M45.015,51.528c-.35.15-.665.19-.907-.286a16.631,16.631,0,0,1-1.2-4.565,62.82,62.82,0,0,1-.358-7.527,6.332,6.332,0,0,0-1.115-4.455,23.4,23.4,0,0,1-1.48-2.122c-.242-.439-.08-.739.382-1.074.224-.157.683-.063,1.037-.136A14.322,14.322,0,0,0,46.158,29c1.74-1.368,4.514-4.014,6.4-5.032a11.194,11.194,0,0,1,4.905-1.746c.39-.045.974.163.314.664a14.061,14.061,0,0,0-5.237,4.97A21.754,21.754,0,0,0,50.3,32.47a7.373,7.373,0,0,1-1.7,2.135,5.275,5.275,0,0,0-1.4,2.423,34.679,34.679,0,0,0-.716,11.84c.076.746.383,1.738-.316,2.1-.432.224-.8.414-1.148.562m3.018,8.629A12.875,12.875,0,0,1,45.4,55.542c-.082-.242-.171-.857.23-1.032.329-.141.765-.394.992-.5s.8-.266.882.56a13.542,13.542,0,0,0,1.1,4.247,5.207,5.207,0,0,1,.251.748.55.55,0,0,1-.816.593m3.1-7.78c-.1.017-1.145.143-1.708.249-.35.064-.709.195-.749-.142-.047-.383-.159-.888-.192-1.024a.256.256,0,0,1,.207-.316c.415-.1,2.018-.365,2.172-.373s.311.05.379.371.138.664.156.8.059.383-.264.432m.57-5.23a8.062,8.062,0,0,1-.188-1.844,1.878,1.878,0,0,1,.326-1,9.231,9.231,0,0,1,1.122-1.006c.551-.451.437-1.62.477-2.29.122-1.947-.051-8.1,3.939-13.981.154-.223.31-.43.465-.624.047-.058.094-.112.141-.17.115-.135.229-.265.347-.385.049-.054.1-.105.15-.155.141-.139.284-.271.427-.392.021-.016.039-.035.058-.051.162-.131.324-.249.485-.361.058-.038.117-.076.175-.11.111-.073.223-.139.336-.2.064-.035.127-.07.192-.1.123-.063.249-.122.373-.177.047-.02.094-.043.141-.064.162-.068.328-.128.492-.184.071-.024.139-.044.209-.066.111-.035.221-.068.331-.1.038-.009.072-.023.11-.032v0c.812-.217,1.645-.338,2.487-.481a15.769,15.769,0,0,1,6.569.427c1.132.358,1.706.633,2.084.276s1.372-1.48,1.793-1.879a.7.7,0,0,0,.134-.179.51.51,0,0,0,.029-.063.616.616,0,0,0,.035-.125.647.647,0,0,0,.007-.072.819.819,0,0,0-.011-.123.259.259,0,0,0-.015-.065.578.578,0,0,0-.076-.169,1.213,1.213,0,0,0-.421-.4,21.992,21.992,0,0,0-11.348-3.826A32.5,32.5,0,0,0,50.7,19.633a1.846,1.846,0,0,1-.559.138c-.155,0-.688-.177-.49-.563a6.963,6.963,0,0,1,1.321-1.558,26.786,26.786,0,0,1,6.335-4.512c.528-.231.657-.328.995-.459.432-.164.688-1.138-.267-1.14a8.8,8.8,0,0,0-1.885.183c-.518.086-.8-.145-.475-.589a6.414,6.414,0,0,1,2.113-1.558A44.155,44.155,0,0,1,67.027,6.3a24.028,24.028,0,0,1,5.037-.772,32.69,32.69,0,0,1,3.813.049,34.767,34.767,0,0,1,17.066,5.361c4.754,3.5,11.6,9.325,12.952,23.71a12.575,12.575,0,0,1-.018,3.137c-.059.432-.55,1.227-.98.324A88.348,88.348,0,0,0,98.81,27.562a.683.683,0,0,0-.417-.34.223.223,0,0,0-.137.016c-.011.007-.018.018-.03.026a.257.257,0,0,0-.067.072.627.627,0,0,0-.028.068.476.476,0,0,0-.023.1.569.569,0,0,0-.01.092,1.033,1.033,0,0,0,.026.242c.062.261.85,4.162.879,4.705s-.231,1.872,1.789,4.326a8.06,8.06,0,0,1,1.934,3.353,19.191,19.191,0,0,1,.5,2.271c.005.155.183.6-.531.6s-3.423-.195-4.584-.169-9.18.814-12.163,1.448-4.589,1.386-6.121,3a4.089,4.089,0,0,1-1,.781,6.659,6.659,0,0,1-1.26-.029,7.171,7.171,0,0,0-2.761.448,2.216,2.216,0,0,1-2.025.259c-1.195-.484-3.245-2.691-8.567-2.431a66.219,66.219,0,0,0-7.068.573l-.4.061-.259.042c-.047.007-.1.014-.145.023-.905.148-1.928.338-3.19.584-.175.033-.347.069-.528.1a.71.71,0,0,1-.924-.636m49.006-1.372c0,.17-.206.345-.417.381s-1.64.164-1.869.181a.4.4,0,0,1-.463-.319c-.018-.209-.065-.7-.078-.833s-.028-.291.264-.329c.17-.021,1.663-.155,2.213-.22a.329.329,0,0,1,.346.342c0,.181,0,.629,0,.8m-6.7,1.607a9.433,9.433,0,0,0-1.693-.974c-.325-.117-.212-.524.252-.589,1.613-.235,2.648-.235,3.45.266a1.6,1.6,0,0,1,.8,1.691c-.211.714-.49.559-.841.553a6.666,6.666,0,0,1-1.965-.947m.932,3.147a2.579,2.579,0,0,1-1.549-.111,10.353,10.353,0,0,1-2.145-1.07,3.479,3.479,0,0,0-2.676-.307c-.63.19-1.136.35-1.691.564s-.669-.293-.524-.51a5.4,5.4,0,0,1,2.19-1.684,3.813,3.813,0,0,1,.99-.15,4.221,4.221,0,0,1,2.39.86A17.1,17.1,0,0,0,94.513,49.8c.348.15,1.1.26.431.725M71.75,75.571c-2.814.985-3.6,0-3.854-.3s.058-.579.356-.718a8.841,8.841,0,0,0,2.018-1.431c.455-.441,1.338-1.976,1.976-2.515a3.73,3.73,0,0,1,3.167-.227,10.447,10.447,0,0,0,5.136.587,2.858,2.858,0,0,0,2.232-1.811,2.483,2.483,0,0,1,1.433-.991,10.5,10.5,0,0,0,2.637-2.06c.145-.155.588-.372,1.291.04a13.229,13.229,0,0,1,3.121,3.1,4.551,4.551,0,0,0,3.008,1.589.891.891,0,0,1,.688.636c.023.132-.321.589-.577.781s-.4.533-2.676.587c-11.424.282-16.565,1.547-19.955,2.733m15.5,1.375a19.967,19.967,0,0,1-3.7,1.3c-1.007.193-4.2.841-4.742.884a3.982,3.982,0,0,1-2.429-.708c-.164-.113-.387-.552.209-.64a41.907,41.907,0,0,1,9.382-1.324c.7-.036,1.025-.05,1.192-.054s.767.188.085.539M72.2,91.36c-2.267.374-8.3-1.4-12.228-11.082-1.012-2.491.1-4.97,1.071-5.471a5.683,5.683,0,0,1,1.087-.462,1.042,1.042,0,0,1,1.358.968c.092.935,1.907,8.611,4.348,11.149.6.629,1.077.591,1.232-.059.133-.6.4-1.379.473-1.678.054-.216.643-.866.976-.037a49.776,49.776,0,0,0,2.153,4.988c.557.9.378,1.543-.471,1.684m.447-25.323a2.092,2.092,0,0,1,.329,1.07c-.022.274-.958.771-1.932-.322a2.919,2.919,0,0,1-.381-3.251c.643-1.025,1.905-.515,1.783-.149a3.25,3.25,0,0,0,.2,2.651M65.416,51.854a6.233,6.233,0,0,0-2.841.379,15.462,15.462,0,0,0-3.137,1.692,4.575,4.575,0,0,1-1.717.652c-.251.022-1.164-.1-.535-.76.167-.181.568-.317,1.177-.761.435-.32.757-.549,1.252-.966a10.051,10.051,0,0,1,3.463-1.934,3.243,3.243,0,0,1,2.2.535c.629.517.871,1.186.141,1.162m-12.521,1.29a2.907,2.907,0,0,1,1.7-2.1c.148-.044.7-.222,1.152-.34.539-.136,1.119-.256,1.415-.309.794-.138.962.466.462.86-.328.261-.851.6-1.314.976-.7.575-1.379,1.215-1.9,1.65-.636.53-1.667.239-1.509-.739m3.73,13.685,0,0-.011-.017c-.2-.276-.381-.567-.552-.863-.036-.065-.072-.132-.11-.2a7.857,7.857,0,0,1-.457-.976c-.246-.654.166-.75.441-.608a7.4,7.4,0,0,0,1.935.8.754.754,0,0,0,.958-.521c.018-.056.042-.126.068-.2a.943.943,0,0,0,.038-.105c.007-.022.013-.044.022-.069.011-.041.021-.081.03-.124a.452.452,0,0,0,.014-.066,1.053,1.053,0,0,0,.02-.131c0-.022,0-.043,0-.067a1.175,1.175,0,0,0-.009-.131.449.449,0,0,0-.01-.058.66.66,0,0,0-.049-.136c-.009-.014-.013-.029-.02-.04a.63.63,0,0,0-.119-.143.819.819,0,0,0-.246-.148,7.762,7.762,0,0,1-4.455-3.927.71.71,0,0,1,.142-.9c.155-.124.709-.477.974-.64a.906.906,0,0,1,1.009.116,3.253,3.253,0,0,0,1.786.779c.588-.057.647-.3.752-.451a5.163,5.163,0,0,1,4.484-2.839c1.215-.016,2.353.1,2.761.071A6.176,6.176,0,0,0,68.7,54.5c.834-.573,1.189-.161.707.466-.072.094-.136.176-.2.259-.024.03-.042.056-.064.084-.065.087-.122.17-.171.249a.689.689,0,0,0,.136.948,6.018,6.018,0,0,0,.852.809.455.455,0,0,0,.279.1.568.568,0,0,0,.143-.023c.021-.007.041-.007.065-.016a.979.979,0,0,0,.239-.151,5.058,5.058,0,0,0,.781-.779c.2-.256.368,0,.318.4a7.1,7.1,0,0,1-2.078,4.769,5.444,5.444,0,0,1-.443.394c-.049.04-.1.08-.15.127-.027.023-.054.049-.081.072-.068.059-.136.123-.206.188s-.113.113-.17.17-.115.112-.174.175c-.036.038-.071.083-.108.125-.073.083-.148.166-.221.258l-.065.092c-.083.108-.163.217-.235.331a4.319,4.319,0,0,0-.254.464,5.135,5.135,0,0,0-.593,2.192c-.059.467-.422.653-.831.842a10.711,10.711,0,0,0-1.622,1.038l0,0c-.217.163-.437.344-.656.53-.042.038-.083.073-.122.111-.219.192-.434.4-.633.609a4.166,4.166,0,0,1-.4.371c-.047.037-.09.065-.137.1-.1.07-.2.135-.293.192-.051.03-.107.058-.158.082a2.463,2.463,0,0,1-.3.125c-.053.018-.105.041-.159.054-.027.007-.051.018-.076.026-.063.014-.126.016-.189.025a1.98,1.98,0,0,1-.235.033c-.087,0-.176,0-.265,0s-.155-.008-.229-.017a2.291,2.291,0,0,1-.273-.068c-.076-.02-.152-.036-.23-.063s-.171-.081-.258-.123a2.567,2.567,0,0,1-.242-.122.208.208,0,0,0-.023-.012,4.469,4.469,0,0,1-.442-.321c-.382-.329-.8-.711-1.215-1.129A.346.346,0,0,0,58,68.443a.493.493,0,0,1-.033-.038c-.213-.216-.426-.445-.633-.685-.018-.022-.5-.6-.707-.89M82.81,112.764a42.206,42.206,0,0,1-2.787,7.87q-.211.488-.411.942c-.032.071-.065.139-.1.211-.051.116-.105.234-.156.343,0,.009-.007.018-.011.028-.076.168-.152.325-.23.482a.016.016,0,0,0,0,.01c-.01.018-.021.039-.033.059-.028.055-.056.108-.084.16-.038.07-.073.144-.113.212a.021.021,0,0,1,0,.013.418.418,0,0,0-.028.046l-.089.156c0,.009-.011.018-.016.028v0c-.027.039-.05.078-.073.114-.007.013-.013.028-.021.039s-.008.011-.015.018c-.032.052-.065.1-.1.156a.115.115,0,0,0-.018.021c-.038.055-.076.108-.113.16,0,0-.008.01-.014.013-.032.044-.066.088-.1.129a.258.258,0,0,1-.023.023c-.038.05-.078.09-.113.133-.005,0-.01.007-.014.013-.021.021-.045.042-.066.064h0a.243.243,0,0,1-.038.037.213.213,0,0,0-.025.023,1.092,1.092,0,0,1-.118.1.039.039,0,0,1-.013.01.95.95,0,0,1-.111.077.275.275,0,0,1-.029.018l-.018.01a.035.035,0,0,1-.022.011c-.028.018-.056.034-.085.051l-.009,0a.715.715,0,0,1-.119.048.2.2,0,0,1-.031.013c-.044.013-.087.026-.134.037-.433.093-.9.16-1.167.207-.04,0-.317.05-.34.059-.113.016-.235.035-.366.057v0c-3.13.527-11.644,1.993-15.593,2.791-2.62.523-2.362-.8-3.02-3.178a75.746,75.746,0,0,1-.744-15.418c.17-1.846.251-2.387.582-2.591a8.758,8.758,0,0,1,.99-.577c.148-.039.6-.158.81.222s4.03,8.133,6.529,10.943c2.217,2.5,3.776,4.32,5.645,5.54a1.338,1.338,0,0,0,.326.165.2.2,0,0,0,.032.013.752.752,0,0,0,.123.025.5.5,0,0,0,.105,0,.282.282,0,0,0,.028,0,.291.291,0,0,0,.149-.082l.016-.018a.381.381,0,0,0,.074-.158.126.126,0,0,0,0-.031,1.338,1.338,0,0,0-.36-1.023,46.2,46.2,0,0,1-4.37-5.4c-2.91-4.131-4.883-10.228-5.413-12.181a19.734,19.734,0,0,1-.51-4.9h0c0-.071,0-.133.008-.2,0-.051,0-.1.007-.154,0-.108.009-.216.015-.319.011-.152.023-.3.041-.436.007-.06.016-.113.023-.17.015-.1.029-.188.043-.273.009-.051.019-.1.031-.144a2.494,2.494,0,0,1,.089-.337c.453-1.294.831-1.155,1.232-.721a36.32,36.32,0,0,0,9.971,6.385,14.944,14.944,0,0,1,2.192,1.013c.171.18.443.564-.1.691a17.364,17.364,0,0,0-3.788.84c-.1.039-.185.078-.267.114a1.735,1.735,0,0,0-.978.8.95.95,0,0,0-.056.17.86.86,0,0,0-.024.126,2.989,2.989,0,0,0-.005.321c0,.082.014.165.023.252.02.147.04.3.055.464.088.9.244,1.547.359,2.754s.043,2.307.633,2.818,1.393.8,3.54.387c2.037-.4,2.715-.571,2.956-.577s.809-.1.459.564c-.033.064-.077.142-.128.236a25.2,25.2,0,0,0-1.995,3.975,16.238,16.238,0,0,0-.554,2c-.035.238.13.7.552.183a36.247,36.247,0,0,1,3.354-4.862c.281-.325.539-.612.782-.876,0,0,0,0,.009-.01.19-.2.366-.389.535-.559.047-.048.091-.092.136-.134l.4-.39c.033-.028.069-.062.1-.09a10.02,10.02,0,0,1,.817-.673.767.767,0,0,0,.066-.044c.09-.067.18-.127.263-.176.023-.013.047-.03.07-.046.083-.051.161-.093.233-.133a.242.242,0,0,1,.042-.025.106.106,0,0,0,.023-.013c.085-.039.156-.081.228-.113.586-.289.745.112.568,1.04m3.473,10.659c-.336.078-1.788.3-2.013.3s-.409-.2-.315-.36a10.874,10.874,0,0,0,1.642-3.721c.092-.369.323-.625.473-.1.116.387.564,2.312.667,3.036.015.127.093.71-.455.838m.609-18.463c-.954.358-2.015-.714-2.874-1.287A23.328,23.328,0,0,1,78.855,99.3c-2.232-2.725-2.023-4.624-1.375-8.144a9.857,9.857,0,0,0-.544-5.182c-.176-.332.023-.669.551-.422a6.489,6.489,0,0,1,1.574,1.678c.537.66.657.191.7-.258a6.249,6.249,0,0,0-.26-2.345h0c-.007-.023-.013-.052-.018-.078-.076-.287-.343-.926-.9-1.042a5.852,5.852,0,0,1-1.894-.514c-.187-.134-.4-.409-.189-.611a4.564,4.564,0,0,1,1.469-1.045,6.615,6.615,0,0,1,2.322-.618c6.149.039,7.807-1.384,10.158-2.359a1.477,1.477,0,0,1,1.132-.156,3.675,3.675,0,0,1,1.743,1c.273.48.321,2.477.846,3.919s1.4-.052,1.593-.671a13.888,13.888,0,0,0,.268-2.472,5.075,5.075,0,0,1,.614-2.481,5.755,5.755,0,0,0,1.333-2.777,11.35,11.35,0,0,0-.028-3.383c-.023-.213-.055-.437-.092-.665-.332-2.086-.752-2.263-1.318-2.642a13.591,13.591,0,0,1-2.606-1.2,29.719,29.719,0,0,1-3.444-3.39,7.4,7.4,0,0,0-4.141-2.066c-.1-.009-.193-.011-.275-.011h-.018a1.42,1.42,0,0,0-.2.022c-.011,0-.018.007-.031.009a.707.707,0,0,0-.138.039.137.137,0,0,1-.034.02.732.732,0,0,0-.087.056l-.033.036a.292.292,0,0,0-.049.061.5.5,0,0,0-.028.054c-.007.02-.017.036-.022.054a.5.5,0,0,0-.018.087c0,.011,0,.021,0,.033a.74.74,0,0,0,0,.124h0a4.212,4.212,0,0,0,.4,1.094c.1.274.363,1.111-.1,1.6s-3.182,2.919-5.726,2.858a7.792,7.792,0,0,1-2.915-.606.054.054,0,0,1,.01.012c-.034-.015-.063-.033-.1-.049-.192-.085-.375-.176-.549-.273-.028-.016-.061-.03-.092-.047-.2-.112-.374-.23-.545-.352l-.15-.112c-.13-.1-.253-.2-.369-.3-.034-.031-.074-.062-.108-.092-.138-.132-.267-.261-.387-.39-.03-.036-.056-.069-.086-.1-.092-.106-.176-.212-.257-.315-.025-.033-.049-.063-.072-.1-.091-.13-.176-.253-.248-.372-.01-.015-.015-.026-.024-.04-.063-.109-.117-.212-.164-.306-.011-.025-.024-.048-.036-.075a2.683,2.683,0,0,1-.114-.282c-.371-1.117.551-3.756.518-5.646-.011-.828-.182-2.417-.309-3.52a5.435,5.435,0,0,1,.725-2.948,1.192,1.192,0,0,1,.258-.229c.027-.02.056-.036.085-.054a2.323,2.323,0,0,1,.339-.181l.056-.029c.125-.051.258-.105.4-.152v.007a7.239,7.239,0,0,1,.773-.22,1.983,1.983,0,0,1,2.238.995c.947,2.609,2,3.161,2.348,3.331s.918-.343,1.138-.533.753-.884.517-1.191a4.046,4.046,0,0,1-.669-1.044c-.178-.492.465-.5.617-.434a9.259,9.259,0,0,0,4.746.931c1.874-.058,4.79-1.293,5.151-1.3a1.567,1.567,0,0,1,1.094.477c.036.051.085.125.131.2.188.279.44.654.664.732.01,0,.016.007.025.009a9.95,9.95,0,0,0,1.29.033c.474.016,1.3-.148,1.274.723a5.5,5.5,0,0,1-2.057,3.916.583.583,0,0,0-.134.209.3.3,0,0,0-.031.065.567.567,0,0,0-.018.125.425.425,0,0,0,.014.112,6.073,6.073,0,0,0,.327.777.678.678,0,0,0,.114.141c.011.011.031.021.044.033a.577.577,0,0,0,.114.072.446.446,0,0,0,.073.022.366.366,0,0,0,.216,0,.606.606,0,0,0,.206-.073,7.049,7.049,0,0,0,2.868-3.416c.676-1.377,1.031-5.926,1.07-6.672a1.945,1.945,0,0,1,.644-1.515,18.556,18.556,0,0,1,2.442-1.528c.261-.061.559-.086.852.592s.949,4.877,1.072,5.521c.14.685.495.6.674.472a3.68,3.68,0,0,0,1.017-1.229,1.645,1.645,0,0,0-.252-1.8c-.343-.385-.887-1-.656-1.609a1.729,1.729,0,0,1,1.932-1.267c.291.049,1.413.555,1.616,3.575.293,4.475-1.532,9.1-1.967,10.275a25.126,25.126,0,0,0-1.313,5.23c-.144.842-.784.69-.937.553s-.355-.788-.454-.884-.353-.047-.518.671a9.536,9.536,0,0,1-1.036,2.254,1.989,1.989,0,0,0-.124,1.247,42.872,42.872,0,0,1,.371,6.981c-.22,5.888-2.188,9.6-3.656,11.538A27.208,27.208,0,0,1,92.614,94.8,2.2,2.2,0,0,1,91,95a5.346,5.346,0,0,1-1.065-.753.725.725,0,0,0-.124-.072c-.422-.2-.485.4-.482.554s.261.777.4,1.37a5.179,5.179,0,0,1-.985,3.537c-.912,1.508-1.93,3.167-1.717,4.988,0,.162,0,.28-.139.333m29.277,1.742c.521,2.993,1.106,6.64,1.768,11.111.034.236.059.438.078.625a.364.364,0,0,1,.01.071,4.694,4.694,0,0,1,.028.47c0,.014,0,.026,0,.037,0,.059,0,.124,0,.175s-.016.093-.026.137c0,.018,0,.036,0,.052a.806.806,0,0,1-.1.236.262.262,0,0,1-.023.032.633.633,0,0,1-.131.133l-.048.037a.943.943,0,0,1-.216.1c-.02.009-.05.013-.078.023-.064.021-.134.039-.211.06-.048.01-.1.018-.144.032l-.322.064a7.092,7.092,0,0,1-.735.105c-.371.037-.8.073-1.276.115-4.56.417-13.483,1.322-20.632,2.222-.134.013-.272.028-.419.051-.557.078-.88-.011-.924-.557a28.5,28.5,0,0,0-3.4-9.692c-.232-.39-.477-.774-.736-1.147-.288-.415.14-.731.548-.587a40.6,40.6,0,0,1,8.839,5.091c1.155.825,1.455,1.082,1.714,1.3a.65.65,0,0,0,.135.083c.018.009.039.013.062.023a.958.958,0,0,0,.11.032.451.451,0,0,0,.062.011.788.788,0,0,0,.126,0h.049a.379.379,0,0,0,.144-.049c.105-.066.154-.195.071-.417-.281-.793-1.794-2.351-5.664-5.942-.552-.511-.562-.726.011-.786s2.122.016,2.947-.018,2.674-.088,2.312-2.5c-.277-1.872-.495-3.808-.529-4.387a1.631,1.631,0,0,0-1.485-1.81,14.348,14.348,0,0,0-5.615.866c-.557.193-.754-.064-.342-.44A43.454,43.454,0,0,0,99.1,95.513c3.322-3.821,4.784-6.633,5.613-9.19.15-.454.341-.3.527-.2a5.484,5.484,0,0,1,1.872,3.595c.433,2.483,1.292,5.93-.222,14.98a53.078,53.078,0,0,1-2.085,8.585c-.238.692.17,1.082.628.461,1.068-1.458,2.48-5.5,3.671-10.145a62.6,62.6,0,0,0,1.778-11.034v0c.018-.231.034-.449.045-.658l.007-.085c.01-.2.02-.4.034-.575a1.137,1.137,0,0,1,.032-.27.427.427,0,0,1,.021-.062.927.927,0,0,1,.034-.1s.005,0,.005-.009a.581.581,0,0,1,.075-.108.144.144,0,0,1,.021-.023.279.279,0,0,1,.064-.041c.016-.007.032-.018.046-.024l.036,0a.41.41,0,0,1,.073-.01.067.067,0,0,1,.03,0h.035c.008,0,.013.007.018.007a1.081,1.081,0,0,1,.241.08c.236.092,1.281.394,1.825,2.9.023.1.046.211.073.32a.849.849,0,0,0,.023.114c.026.1.048.2.073.312l.005.018c.451,1.971,1.269,5.38,2.469,12.348" transform="translate(-27.648 -2.508)"/>
        <path id="Path_181" data-name="Path 181" d="M167.706,221.632h.508v1.3h.307v-1.3h.507v-.261h-1.322Z" transform="translate(-98.463 -113.168)"/>
        <path id="Path_182" data-name="Path 182" d="M171.756,222.484l-.392-1.113h-.442v1.557h.284v-1.253l.433,1.253h.25l.426-1.253v1.253h.284v-1.557h-.442Z" transform="translate(-100.089 -113.168)"/>
      </g>
    </g>
  </g>
</svg>
