<svg id="Group_242" data-name="Group 242" xmlns="http://www.w3.org/2000/svg" width="21.994" height="21.996" viewBox="0 0 21.994 21.996">
  <g id="logout">
    <g id="Group_241" data-name="Group 241" transform="translate(0)">
      <g id="Group_240" data-name="Group 240">
        <path id="Path_380" data-name="Path 380" d="M307.774,152.654a.926.926,0,0,0-.2-.3l-2.749-2.749a.916.916,0,0,0-1.3,1.3l1.185,1.185H299.6a.916.916,0,0,0,0,1.833h5.119l-1.185,1.185a.916.916,0,1,0,1.3,1.3l2.749-2.749a.907.907,0,0,0,.2-.3A.917.917,0,0,0,307.774,152.654Z" transform="translate(-285.849 -142.923)" fill="#f9f9f9"/>
        <path id="Path_381" data-name="Path 381" d="M15.594,12.831a.916.916,0,0,0-.916.916V18.33H11.012V3.666a.918.918,0,0,0-.653-.878L7.175,1.833h7.5V6.415a.916.916,0,1,0,1.833,0V.917A.916.916,0,0,0,15.594,0H.93A.817.817,0,0,0,.836.017.905.905,0,0,0,.448.153C.427.166.4.167.383.181S.373.2.366.2a.908.908,0,0,0-.244.29A.749.749,0,0,0,.1.569.869.869,0,0,0,.024.784a.57.57,0,0,0,0,.08C.026.882.014.9.014.916v18.33a.916.916,0,0,0,.737.9l9.165,1.833A.853.853,0,0,0,10.1,22a.917.917,0,0,0,.916-.917v-.916h4.582a.916.916,0,0,0,.916-.916v-5.5A.916.916,0,0,0,15.594,12.831Z" transform="translate(-0.014)" fill="#f9f9f9"/>
      </g>
    </g>
  </g>
</svg>
