<svg id="personal-information-interface-symbol" xmlns="http://www.w3.org/2000/svg" width="20.846" height="18.747" viewBox="0 0 20.846 18.747">
  <g id="Group_243" data-name="Group 243" transform="translate(0 0)">
    <rect id="Rectangle_218" data-name="Rectangle 218" width="1.198" height="3.07" transform="translate(15.694 13.407)" fill="#f9f9f9"/>
    <circle id="Ellipse_75" data-name="Ellipse 75" cx="0.702" cy="0.702" r="0.702" transform="translate(15.591 11.636)" fill="#f9f9f9"/>
    <path id="Path_382" data-name="Path 382" d="M16.258,48.639A4.57,4.57,0,0,0,12.914,50.1l-.233-.107-1.08-.911L9.745,50.924,7.884,49.078l-1.08.911L4.555,51.024a1.706,1.706,0,0,0-.826.7L0,57.08l13.785.006a4.586,4.586,0,1,0,2.473-8.447Zm0,7.817a3.229,3.229,0,1,1,3.228-3.229A3.232,3.232,0,0,1,16.258,56.456Z" transform="translate(0 -39.068)" fill="#f9f9f9"/>
    <path id="Path_383" data-name="Path 383" d="M29.326,15.037h.024c2.621.04,4.214-2.254,4.256-6.036.026-2.624-1.6-4.124-4.251-4.195h-.033C26.672,4.877,25.044,6.377,25.071,9,25.112,12.783,26.7,15.077,29.326,15.037Z" transform="translate(-19.596 -4.805)" fill="#f9f9f9"/>
  </g>
</svg>
