<svg xmlns="http://www.w3.org/2000/svg" width="27.043" height="27.043" viewBox="0 0 27.043 27.043">
  <defs>
    <style>
      .cls-1 {
        fill: #55acee;
      }

      .cls-2 {
        fill: #f1f2f2;
      }
    </style>
  </defs>
  <g id="twitter" transform="translate(-0.001)">
    <circle id="Ellipse_1" data-name="Ellipse 1" class="cls-1" cx="13.521" cy="13.521" r="13.521" transform="translate(0.001 0)"/>
    <g id="Group_10" data-name="Group 10" transform="translate(6.051 8.202)">
      <path id="Path_2" data-name="Path 2" class="cls-2" d="M40.856,35.544A6.448,6.448,0,0,1,39,36.052a3.241,3.241,0,0,0,1.421-1.788,6.47,6.47,0,0,1-2.052.784A3.235,3.235,0,0,0,32.861,38,9.175,9.175,0,0,1,26.2,34.619a3.236,3.236,0,0,0,1,4.315,3.209,3.209,0,0,1-1.464-.4c0,.014,0,.027,0,.041a3.234,3.234,0,0,0,2.593,3.169,3.245,3.245,0,0,1-1.459.056,3.235,3.235,0,0,0,3.019,2.244A6.524,6.524,0,0,1,25.1,45.378a9.191,9.191,0,0,0,14.15-7.744q0-.21-.009-.418a6.554,6.554,0,0,0,1.613-1.673Z" transform="translate(-25.103 -34.028)"/>
    </g>
  </g>
</svg>
